<?xml version="1.0" encoding="UTF-8"?>
<svg version="1.1" xmlns="http://www.w3.org/2000/svg" width="1563" height="1563">
<path d="M0 0 C1.00289062 -0.01224609 2.00578125 -0.02449219 3.0390625 -0.03710938 C20.26498599 -0.07092991 34.45442341 7.34376658 46.875 19 C60.6016636 33.40036488 64.96271101 50.68516317 64.85205078 69.99072266 C64.85148543 71.35178621 64.85180564 72.71285037 64.85293579 74.07391357 C64.85350549 77.73854837 64.84181387 81.40305005 64.82778788 85.06765413 C64.81521605 88.90865165 64.81410496 92.74965281 64.81173706 96.59066772 C64.80554114 103.85063716 64.7891561 111.11054577 64.76903808 118.37048852 C64.74242154 128.19041022 64.73169117 138.01034875 64.72003365 147.83029747 C64.70127397 163.2827438 64.6614158 178.73506183 64.625 194.1875 C22.055 194.1875 -20.515 194.1875 -64.375 194.1875 C-64.4959091 160.39564487 -64.4959091 160.39564487 -64.52148438 146.171875 C-64.53924493 136.37332416 -64.56005771 126.57485103 -64.60131836 116.77636719 C-64.63136157 109.63832874 -64.65060816 102.50035371 -64.65726548 95.36225379 C-64.66115266 91.58794333 -64.67019081 87.81381417 -64.69219017 84.03956223 C-64.71279213 80.47564347 -64.71878685 76.91197795 -64.71432304 73.34800529 C-64.71552165 71.43983068 -64.73153817 69.53168265 -64.7482605 67.62358093 C-64.70873199 56.39010036 -63.14688628 45.11643098 -57.875 35.0625 C-57.36549805 34.06984131 -57.36549805 34.06984131 -56.84570312 33.05712891 C-48.40434558 17.44964563 -33.90952972 7.05044367 -17.375 1.1875 C-11.65209031 -0.16159433 -5.84691328 0.0037289 0 0 Z " fill="#6C6D70" transform="translate(533.375,716.8125)"/>
<path d="M0 0 C14.69760594 11.44717386 23.3033714 26.58833175 26.09375 44.96484375 C27.93668558 61.30606652 24.01522151 78.4909358 13.82910156 91.59130859 C2.74391024 104.99358503 -11.32984249 114.53427768 -28.90625 116.96484375 C-47.96557582 118.57383282 -65.60215617 114.79884766 -80.62426758 102.25805664 C-90.39853325 93.60841564 -97.4211482 82.57667622 -100.90625 69.96484375 C-101.12925781 69.19269531 -101.35226562 68.42054688 -101.58203125 67.625 C-105.58536163 51.25764247 -102.57065037 34.5157559 -94.65234375 19.8046875 C-84.89033757 3.92777811 -70.22941023 -6.46562504 -52.21411133 -10.85083008 C-33.87061003 -14.82850054 -15.37427164 -10.76612302 0 0 Z " fill="#155128" transform="translate(571.90625,587.03515625)"/>
<path d="M0 0 C42.57 0 85.14 0 129 0 C129 18.3207461 122.94112177 34.70432695 110 48 C96.20950558 60.20538012 79.62430988 67.02521874 61.15234375 66.34375 C44.19373925 65.22621428 29.92339294 58.05023755 18 46 C17.37609375 45.40960937 16.7521875 44.81921875 16.109375 44.2109375 C4.62237679 32.46522312 0 15.98761946 0 0 Z " fill="#CA5C20" transform="translate(469,928)"/>
<path d="M0 0 C19.8 0 39.6 0 60 0 C60 2.97 60 5.94 60 9 C43.5 9 27 9 10 9 C10 17.91 10 26.82 10 36 C24.85 36 39.7 36 55 36 C55 38.97 55 41.94 55 45 C54 46 54 46 52.20933533 46.12025452 C51.42990067 46.11803391 50.650466 46.11581329 49.84741211 46.11352539 C48.96657455 46.11344986 48.085737 46.11337433 47.1782074 46.11329651 C46.22092239 46.10813522 45.26363739 46.10297394 44.27734375 46.09765625 C43.30213272 46.0962413 42.32692169 46.09482635 41.32215881 46.09336853 C38.19390857 46.08775133 35.06572877 46.07519593 31.9375 46.0625 C29.82226666 46.05748722 27.70703219 46.05292393 25.59179688 46.04882812 C20.39448199 46.03862531 15.19732025 46.01905331 10 46 C10 54.91 10 63.82 10 73 C26.5 73 43 73 60 73 C60 75.97 60 78.94 60 82 C40.2 82 20.4 82 0 82 C0 54.94 0 27.88 0 0 Z " fill="#C95C20" transform="translate(886,826)"/>
<path d="M0 0 C19.8 0 39.6 0 60 0 C60 2.97 60 5.94 60 9 C43.5 9 27 9 10 9 C10 17.91 10 26.82 10 36 C24.52 36 39.04 36 54 36 C54 39.3 54 42.6 54 46 C39.48 46 24.96 46 10 46 C10 54.91 10 63.82 10 73 C26.5 73 43 73 60 73 C60 75.97 60 78.94 60 82 C40.2 82 20.4 82 0 82 C0 54.94 0 27.88 0 0 Z " fill="#16512A" transform="translate(622,826)"/>
<path d="M0 0 C5.67595578 5.08933465 9.03695632 13.56390469 9.8125 21 C9.8125 23.97 9.8125 26.94 9.8125 30 C-6.0275 30 -21.8675 30 -38.1875 30 C-34.53576129 39.12934678 -32.67327314 42.73818895 -24.875 47.375 C-17.00197435 49.2059362 -11.29026966 48.11573928 -4.21875 44.2890625 C-2.07300028 43.03093092 -2.07300028 43.03093092 -0.1875 41 C3.18189433 41.33693943 5.24160583 42.88819408 7.8125 45 C5.43786062 50.92355098 -0.559141 54.41734436 -6.23828125 56.89453125 C-15.77266108 59.63837969 -25.42022076 58.48341898 -34.1875 54 C-41.31797761 49.42045987 -45.1989489 43.11960564 -47.79296875 35.13671875 C-49.68821794 24.87234936 -48.61221145 14.9883905 -43.1875 6 C-32.18084671 -8.86264269 -14.76517427 -9.26442307 0 0 Z M-32.64453125 8.1484375 C-35.95525581 12.12130697 -38.1875 16.80948129 -38.1875 22 C-25.6475 22 -13.1075 22 -0.1875 22 C-2.82720052 12.12840971 -2.82720052 12.12840971 -9.1875 5 C-17.85880044 0.9735255 -25.44873001 1.46309356 -32.64453125 8.1484375 Z " fill="#145028" transform="translate(865.1875,852)"/>
<path d="M0 0 C6.82632208 5.61275371 11.28364069 12.58681529 12.44921875 21.39453125 C12.52785156 22.52246094 12.60648438 23.65039062 12.6875 24.8125 C12.77386719 25.95332031 12.86023437 27.09414063 12.94921875 28.26953125 C12.96597656 29.17058594 12.98273438 30.07164062 13 31 C12 32 12 32 10.09544373 32.12025452 C9.26271439 32.11803391 8.42998505 32.11581329 7.57202148 32.11352539 C6.63112167 32.11344986 5.69022186 32.11337433 4.72080994 32.11329651 C3.69790359 32.10813522 2.67499725 32.10297394 1.62109375 32.09765625 C0.57929459 32.0962413 -0.46250458 32.09482635 -1.53587341 32.09336853 C-4.87811094 32.0877508 -8.22028257 32.0751953 -11.5625 32.0625 C-13.82226466 32.05748728 -16.08203037 32.05292398 -18.34179688 32.04882812 C-23.89455391 32.03777561 -29.44727225 32.02102024 -35 32 C-34.38771215 33.60784417 -33.76773327 35.21276087 -33.14453125 36.81640625 C-32.80010986 37.71045166 -32.45568848 38.60449707 -32.10083008 39.52563477 C-30.03723847 44.16402485 -27.13834156 46.35270774 -22.8125 48.8125 C-15.71664341 51.02268484 -10.23067891 50.90778423 -3.5 47.625 C-0.9194201 46.22854695 0.92012953 45.07987047 3 43 C5.45849212 43.23791859 6.81202615 43.863881 8.8125 45.3125 C10 47 10 47 9.7890625 48.9140625 C8.26633617 52.93948756 4.58886041 54.88577036 1 57 C-7.68007098 60.85303481 -16.65781151 61.33099134 -25.6875 58.4375 C-34.48439779 54.8159851 -39.94872959 49.22919393 -43.9296875 40.58203125 C-46.71524662 31.25955786 -46.60403722 19.86058245 -42.25390625 11.0390625 C-37.82227035 3.83247702 -32.27058564 -0.99902044 -24.078125 -3.61328125 C-15.53454151 -5.20315863 -7.58076567 -4.27991567 0 0 Z M-28.05078125 8.8125 C-32.43086521 13.60066632 -35 17.37284473 -35 24 C-22.79 24 -10.58 24 2 24 C0.99922092 15.99376734 0.16760221 13.25810513 -5.1875 7.75 C-12.7891602 3.0200781 -21.11871344 2.68587245 -28.05078125 8.8125 Z " fill="#CA5B20" transform="translate(1073,850)"/>
<path d="M0 0 C3.63 0 7.26 0 11 0 C15.24571565 8.24495717 18.97016744 16.67099172 22.625 25.1875 C23.20286229 26.52810806 23.78098589 27.86860352 24.359375 29.20898438 C26.9151444 35.13550741 29.45822641 41.06746458 32 47 C33.69581061 44.45628408 34.70742786 42.43363939 35.78759766 39.62036133 C36.12779938 38.73967484 36.4680011 37.85898834 36.81851196 36.95161438 C37.18004364 36.00465195 37.54157532 35.05768951 37.9140625 34.08203125 C38.28856537 33.10965012 38.66306824 32.13726898 39.04891968 31.13542175 C40.24438567 28.02909071 41.43474845 24.92083231 42.625 21.8125 C43.43456053 19.7062513 44.2444523 17.60012989 45.0546875 15.49414062 C47.04030523 10.33089629 49.02134832 5.16591764 51 0 C54.63 0 58.26 0 62 0 C59.3365523 9.95234846 55.31930634 19.31656595 51.375 28.8125 C50.64780258 30.56841373 49.92067071 32.32435461 49.19360352 34.08032227 C47.7712193 37.51280676 46.34518732 40.94375006 44.91748047 44.37402344 C43.31834932 48.2218562 41.748774 52.08040666 40.19140625 55.9453125 C39.44073118 57.77629886 38.68950082 59.60705774 37.9375 61.4375 C37.62925293 62.22036377 37.32100586 63.00322754 37.00341797 63.80981445 C34.47240192 69.86680235 30.73114492 75.74737931 24.99951172 79.20776367 C21.86902403 80.44810953 18.90760691 80.26326108 15.5625 80.25 C14.26441406 80.25515625 12.96632813 80.2603125 11.62890625 80.265625 C8.2644161 80.01935446 6.00735953 79.46022081 3 78 C3.56054661 74.63672037 4.41841038 72.00887781 6 69 C6.72445312 69.17917969 7.44890625 69.35835937 8.1953125 69.54296875 C14.36184877 70.92833839 14.36184877 70.92833839 20.5 69.9375 C23.33122051 67.7433041 24.70543511 66.35063854 26 63 C25.60634628 57.78104049 24.23001732 53.78560983 21.97265625 49.08984375 C21.51536133 48.12748055 21.51536133 48.12748055 21.04882812 47.14567566 C20.39769124 45.77802657 19.74232114 44.412386 19.08303833 43.04864502 C18.05326476 40.91839544 17.03468533 38.78313155 16.01928711 36.64599609 C14.99492159 34.49017832 13.97000135 32.33465231 12.94166565 30.1807251 C9.92213546 23.85601564 6.97018705 17.50194456 4.0625 11.125 C3.64427979 10.21741943 3.22605957 9.30983887 2.79516602 8.37475586 C2.42061279 7.55241455 2.04605957 6.73007324 1.66015625 5.8828125 C1.33668213 5.17527832 1.01320801 4.46774414 0.67993164 3.73876953 C0 2 0 2 0 0 Z " fill="#C95B20" transform="translate(956,847)"/>
<path d="M0 0 C3.3 0 6.6 0 10 0 C10 5.94 10 11.88 10 18 C16.27 18 22.54 18 29 18 C29 20.97 29 23.94 29 27 C22.73 27 16.46 27 10 27 C10.09697933 32.33896707 10.19973613 37.67716572 10.31738281 43.015625 C10.35564191 44.83131121 10.39050017 46.64707241 10.421875 48.46289062 C10.4675923 51.07449123 10.52557536 53.68557688 10.5859375 56.296875 C10.59748871 57.10743347 10.60903992 57.91799194 10.62094116 58.75311279 C10.71129106 64.20058756 10.71129106 64.20058756 13 69 C15.46009963 70.23004981 17.13172806 70.13314027 19.875 70.125 C20.73867188 70.12757813 21.60234375 70.13015625 22.4921875 70.1328125 C25.28016513 70.06517236 25.28016513 70.06517236 29 69 C29 71.97 29 74.94 29 78 C22.50734896 81.24632552 16.96234602 81.53698613 10.04296875 79.71484375 C6.95842911 78.63554977 5.18543156 77.44254115 3 75 C0.24837589 68.94501224 -0.41553437 64.0677628 -0.29296875 57.46875 C-0.28872391 56.59222778 -0.28447906 55.71570557 -0.28010559 54.81262207 C-0.2634513 52.04142177 -0.22582509 49.27097664 -0.1875 46.5 C-0.17243599 44.60938558 -0.1587506 42.71875964 -0.14648438 40.828125 C-0.11359139 36.21846361 -0.06190255 31.60935938 0 27 C-2.64 27 -5.28 27 -8 27 C-8 24.03 -8 21.06 -8 18 C-5.36 18 -2.72 18 0 18 C0 12.06 0 6.12 0 0 Z " fill="#165229" transform="translate(773,829)"/>
<path d="M0 0 C3.3 0 6.6 0 10 0 C10 28.38 10 56.76 10 86 C6.7 86 3.4 86 0 86 C0 57.62 0 29.24 0 0 Z " fill="#155028" transform="translate(702,822)"/>
<path d="M0 0 C6 0 6 0 8.640625 2.38671875 C9.52924955 3.47182563 10.39811646 4.57331646 11.25 5.6875 C11.71672119 6.26822266 12.18344238 6.84894531 12.66430664 7.44726562 C14.13021618 9.28292523 15.56721822 11.13840468 17 13 C17.93079567 14.19416159 18.86178095 15.38817541 19.79296875 16.58203125 C21.47836923 18.75346413 23.14697732 20.93506072 24.80859375 23.125 C26.83280478 25.7806494 28.91405128 28.3925641 31 31 C31.33 20.77 31.66 10.54 32 0 C33.98 0 35.96 0 38 0 C38 14.52 38 29.04 38 44 C33 44 33 44 31.11328125 42.48828125 C30.51902344 41.77027344 29.92476562 41.05226563 29.3125 40.3125 C28.62800781 39.49265625 27.94351563 38.6728125 27.23828125 37.828125 C24.01179552 33.75137864 20.8229051 29.6509032 17.6875 25.50390625 C14.19385067 20.94895937 10.5860503 16.48256288 7 12 C6.67 22.56 6.34 33.12 6 44 C4.02 44 2.04 44 0 44 C0 29.48 0 14.96 0 0 Z " fill="#696A6D" transform="translate(935,938)"/>
<path d="M0 0 C6.04478848 3.35928532 9.5272173 8.5816519 11.6875 15.0625 C12.5771129 23.4121525 11.76591149 30.20603556 6.6875 37.0625 C0.17896603 43.39059937 -5.37204974 44.44422689 -14.2734375 44.3359375 C-20.51066782 43.77474711 -24.53176515 41.20030423 -28.6875 36.625 C-34.26279984 29.91283734 -34.0698962 22.43172799 -33.3125 14.0625 C-31.68897464 8.12187313 -28.38321744 4.54240413 -23.3125 1.0625 C-15.80797463 -3.20477913 -7.87785858 -3.42876676 0 0 Z M-24.625 10.625 C-28.11854848 15.67123669 -27.91659833 21.13212623 -27.3125 27.0625 C-24.99087701 31.88433237 -21.77004236 35.11883995 -17.3125 38.0625 C-12.52364024 39.59067046 -8.58514506 39.52941907 -4 37.4375 C0.99821375 34.54588926 4.12919773 30.64641645 5.6875 25.0625 C6.30895764 18.74434732 5.42060759 14.273296 1.6875 9.0625 C-1.1515393 5.87629557 -3.7685891 4.31607839 -8 3.62109375 C-15.48819129 3.30569439 -19.55040059 5.00179525 -24.625 10.625 Z " fill="#696A6D" transform="translate(695.3125,938.9375)"/>
<path d="M0 0 C7 0 7 0 9.484375 2.3515625 C10.23203125 3.43179688 10.9796875 4.51203125 11.75 5.625 C12.60016915 6.81609993 13.45178584 8.00616769 14.3046875 9.1953125 C14.74135742 9.81825195 15.17802734 10.44119141 15.62792969 11.08300781 C17.93531898 14.30678375 20.40932347 17.39670584 22.875 20.5 C23.76850929 21.63519623 24.66175128 22.77060293 25.5546875 23.90625 C27.69329556 26.61196499 29.84552305 29.30690381 32 32 C32.33 21.44 32.66 10.88 33 0 C34.65 0 36.3 0 38 0 C38 14.52 38 29.04 38 44 C33 44 33 44 30.78125 41.97265625 C30.0284375 41.01230469 29.275625 40.05195312 28.5 39.0625 C28.08419678 38.53978516 27.66839355 38.01707031 27.23999023 37.47851562 C25.80822044 35.66600325 24.40338699 33.83456727 23 32 C21.85556548 30.51945647 20.71103009 29.03899091 19.56640625 27.55859375 C15.33804107 22.06863347 11.1577079 16.54361053 7 11 C6.67 21.89 6.34 32.78 6 44 C4.02 44 2.04 44 0 44 C0 29.48 0 14.96 0 0 Z " fill="#696A6D" transform="translate(714,938)"/>
<path d="M0 0 C2 2.1875 2 2.1875 3 4 C1.75 5.5625 1.75 5.5625 0 7 C-2.29383363 6.7780161 -3.80023169 6.1144642 -5.79296875 4.97265625 C-9.99405322 3.12120487 -14.51054688 3.46647079 -19 4 C-23.004793 6.0023965 -25.6587028 8.17998877 -28 12 C-29.88315379 17.64946138 -30.18226905 24.49024875 -27.5 29.9375 C-23.60130153 34.71340562 -19.65067836 36.66264094 -13.5625 37.4375 C-9.05362939 36.88377905 -5.26092363 35.57326411 -1 34 C-1 30.7 -1 27.4 -1 24 C-5.62 24 -10.24 24 -15 24 C-15 22.02 -15 20.04 -15 18 C-8.73 18 -2.46 18 4 18 C4.2475 22.5478125 4.2475 22.5478125 4.5 27.1875 C4.57283203 28.13391357 4.64566406 29.08032715 4.72070312 30.05541992 C4.78690204 32.57017783 4.7164299 34.58043065 4 37 C-0.73685356 41.6895391 -6.56442474 43.17362937 -13.0625 43.375 C-20.98765606 43.31308472 -26.8733488 41.1266512 -32.5 35.5 C-36.81556023 28.30739961 -36.68467861 21.14680873 -36 13 C-34.39040751 6.7158425 -30.29953283 2.54858586 -25 -1 C-17.13951805 -4.93024097 -7.64293263 -3.82146631 0 0 Z " fill="#68696C" transform="translate(1017,940)"/>
<path d="M0 0 C1.71484375 1.16796875 1.71484375 1.16796875 2.71484375 4.16796875 C1.72484375 5.65296875 1.72484375 5.65296875 0.71484375 7.16796875 C-1.43372947 6.7075602 -3.18424698 6.22458166 -5.109375 5.14453125 C-7.67549081 3.9927737 -9.54496762 3.90105962 -12.34765625 3.91796875 C-13.20488281 3.9128125 -14.06210937 3.90765625 -14.9453125 3.90234375 C-17.55568423 4.01804387 -17.55568423 4.01804387 -20.28515625 6.16796875 C-20.64813561 8.14543997 -20.64813561 8.14543997 -20.47265625 10.29296875 C-20.41078125 11.57171875 -20.34890625 12.85046875 -20.28515625 14.16796875 C-19.60710938 14.338125 -18.9290625 14.50828125 -18.23046875 14.68359375 C0.23687488 19.49226494 0.23687488 19.49226494 3.71484375 25.16796875 C4.79283932 29.24895198 4.82066866 31.7517241 3.77734375 35.85546875 C1.07260675 40.19944029 -1.39288899 41.80587128 -6.28515625 43.16796875 C-15.2409093 44.44736204 -21.9001044 42.09133665 -29.28515625 37.16796875 C-28.95515625 35.84796875 -28.62515625 34.52796875 -28.28515625 33.16796875 C-26.72265625 32.41796875 -26.72265625 32.41796875 -24.28515625 32.16796875 C-22.58415386 33.14931628 -20.88534532 34.13555576 -19.21484375 35.16796875 C-15.10169735 37.29947782 -10.93169305 37.52591153 -6.41015625 36.54296875 C-3.64955577 34.75669785 -3.05640667 33.33009546 -2.28515625 30.16796875 C-2.61515625 29.17796875 -2.94515625 28.18796875 -3.28515625 27.16796875 C-5.5003893 26.0537339 -5.5003893 26.0537339 -8.22265625 25.23046875 C-9.70572266 24.72193359 -9.70572266 24.72193359 -11.21875 24.203125 C-12.23066406 23.86152344 -13.24257813 23.51992188 -14.28515625 23.16796875 C-16.1249589 22.51936891 -17.95891272 21.85381868 -19.78515625 21.16796875 C-20.57921875 20.87921875 -21.37328125 20.59046875 -22.19140625 20.29296875 C-24.7525197 18.91684809 -25.84123271 17.68581043 -27.28515625 15.16796875 C-28.08343818 11.136645 -28.18956279 6.99166919 -26.3359375 3.25390625 C-19.56923602 -5.41259469 -9.03819825 -4.14581677 0 0 Z " fill="#68696C" transform="translate(788.28515625,939.83203125)"/>
<path d="M0 0 C3.3 0 6.6 0 10 0 C10 20.13 10 40.26 10 61 C6.7 61 3.4 61 0 61 C0 40.87 0 20.74 0 0 Z " fill="#165128" transform="translate(737,847)"/>
<path d="M0 0 C1.98 0 3.96 0 6 0 C6.01458252 0.87736816 6.02916504 1.75473633 6.04418945 2.65869141 C6.1054968 5.93549321 6.17969333 9.21148944 6.26245117 12.48779297 C6.29556291 13.9017449 6.32363716 15.31582464 6.34643555 16.72998047 C6.38023775 18.77105823 6.43255964 20.81097928 6.48828125 22.8515625 C6.51446533 24.07697754 6.54064941 25.30239258 6.56762695 26.56494141 C7.04280455 30.34006778 7.99854448 32.77734227 10 36 C14.18534896 38.67862334 16.78868084 39.3393364 21.6875 38.5 C24.8038246 37.62934032 26.02643963 36.97620433 28.5 34.75 C31.07267674 30.03342597 31.13303387 25.01816533 31.31640625 19.7265625 C31.35830078 18.57285156 31.40019531 17.41914062 31.44335938 16.23046875 C31.48267578 15.04066406 31.52199219 13.85085938 31.5625 12.625 C31.60568359 11.41199219 31.64886719 10.19898438 31.69335938 8.94921875 C31.79905513 5.96624968 31.90115321 2.98320258 32 0 C33.65 0 35.3 0 37 0 C37.07447267 4.58980814 37.12875322 9.17926014 37.16479492 13.76953125 C37.17982869 15.32916394 37.20026135 16.88875472 37.22631836 18.44824219 C37.26294211 20.69737116 37.27978021 22.94593847 37.29296875 25.1953125 C37.30845261 25.8861795 37.32393646 26.57704651 37.33988953 27.28884888 C37.34171607 32.61089595 36.12126822 36.67433875 32.5 40.64453125 C26.22071477 45.53387053 20.76016246 45.69831627 13 45 C8.29950798 43.6753847 5.63987963 41.78754416 2.5625 38 C0.0242503 33.12656057 -0.12019843 29.32841789 -0.09765625 23.828125 C-0.0962413 23.1457074 -0.09482635 22.46328979 -0.09336853 21.76019287 C-0.08779084 19.59008316 -0.07524254 17.4200783 -0.0625 15.25 C-0.05748211 13.77474108 -0.05291971 12.29948053 -0.04882812 10.82421875 C-0.03782875 7.21611202 -0.02057953 3.60806625 0 0 Z " fill="#68696C" transform="translate(799,938)"/>
<path d="M0 0 C1.8984375 1.484375 1.8984375 1.484375 2.796875 3.53125 C2.84714844 4.49804688 2.84714844 4.49804688 2.8984375 5.484375 C2.2384375 6.144375 1.5784375 6.804375 0.8984375 7.484375 C-1.76310213 7.19921004 -3.4150124 6.29779768 -5.7265625 4.921875 C-11.36297506 2.52118076 -16.6728065 2.71976663 -22.4765625 4.546875 C-26.9834241 7.87336808 -29.04122754 12.02932008 -30.0390625 17.421875 C-30.50963215 23.3441662 -28.44541547 27.81363887 -24.7890625 32.359375 C-20.70027087 35.59237303 -17.27231731 36.75333727 -12.1015625 36.359375 C-8.06147466 35.72472519 -5.35462332 33.96289753 -2.1015625 31.484375 C-1.4415625 31.154375 -0.7815625 30.824375 -0.1015625 30.484375 C1.2184375 31.804375 2.5384375 33.124375 3.8984375 34.484375 C-0.49244913 39.40749031 -4.37808077 42.0057919 -10.8671875 42.83984375 C-18.30129336 43.19248723 -24.03820613 41.90116854 -30.1015625 37.484375 C-35.00471379 32.62737102 -36.78360401 26.91832669 -37.4140625 20.109375 C-36.67712145 11.56085885 -33.68258874 5.12525464 -27.1015625 -0.515625 C-18.51102986 -5.92784218 -8.59231444 -4.39102505 0 0 Z " fill="#67686B" transform="translate(654.1015625,940.515625)"/>
<path d="M0 0 C1.98 0 3.96 0 6 0 C6 12.87 6 25.74 6 39 C14.25 39 22.5 39 31 39 C31 40.65 31 42.3 31 44 C20.77 44 10.54 44 0 44 C0 29.48 0 14.96 0 0 Z " fill="#696A6D" transform="translate(845,938)"/>
<path d="M0 0 C11.55 0 23.1 0 35 0 C35 1.65 35 3.3 35 5 C30.05 5 25.1 5 20 5 C20 17.87 20 30.74 20 44 C18.35 44 16.7 44 15 44 C15 31.13 15 18.26 15 5 C10.05 5 5.1 5 0 5 C0 3.35 0 1.7 0 0 Z " fill="#696A6D" transform="translate(878,938)"/>
<path d="M0 0 C1.98 0 3.96 0 6 0 C6 14.52 6 29.04 6 44 C4.02 44 2.04 44 0 44 C0 29.48 0 14.96 0 0 Z " fill="#626466" transform="translate(920,938)"/>
<path d="M0 0 C0.99 0 1.98 0 3 0 C3 13.86 3 27.72 3 42 C2.01 42 1.02 42 0 42 C0 28.14 0 14.28 0 0 Z " fill="#6C6D70" transform="translate(921,939)"/>
<path d="M0 0 C3.63 0 7.26 0 11 0 C11 3.63 11 7.26 11 11 C7.37 11 3.74 11 0 11 C0 7.37 0 3.74 0 0 Z " fill="#155228" transform="translate(736,824)"/>
</svg>
